<?xml version="1.0" encoding="utf-8"?>
<!-- Generator: Adobe Illustrator 21.0.0, SVG Export Plug-In . SVG Version: 6.00 Build 0)  -->
<svg version="1.1" id="Layer_1" xmlns="http://www.w3.org/2000/svg" xmlns:xlink="http://www.w3.org/1999/xlink" x="0px" y="0px"
	 viewBox="0 0 4.5 5.8" style="enable-background:new 0 0 4.5 5.8;" xml:space="preserve">
<style type="text/css">
	.st0{fill:#F37124;}
</style>
<g id="XMLID_298_">
</g>
<g id="XMLID_4119_">
	<g id="XMLID_4127_">
		<g id="XMLID_4128_">
			<g id="XMLID_4133_">
				<path id="XMLID_4134_" class="st0" d="M3,1.7v0.8c0.3,0.2,0.5,0.6,0.5,1c0,0.7-0.6,1.3-1.3,1.3S0.9,4.2,0.9,3.5
					c0-0.4,0.2-0.7,0.5-1V1.7C0.7,2,0.3,2.6,0.3,3.4c0,1.1,0.9,1.9,1.9,1.9s1.9-0.9,1.9-1.9C4.2,2.6,3.7,2,3,1.7z"/>
			</g>
			<g id="XMLID_4130_">
				<path id="XMLID_4131_" class="st0" d="M2.2,3.1L2.2,3.1c0.2,0,0.4-0.2,0.4-0.4V1.2c0-0.2-0.2-0.4-0.4-0.4l0,0
					C2,0.9,1.8,1,1.8,1.2v1.5C1.8,2.9,2,3.1,2.2,3.1z"/>
			</g>
		</g>
	</g>
</g>
<g id="XMLID_5580_">
</g>
<g id="XMLID_713_">
</g>
<g id="XMLID_1958_">
</g>
</svg>
