<?xml version="1.0" encoding="utf-8"?>
<!-- Generator: Adobe Illustrator 21.0.0, SVG Export Plug-In . SVG Version: 6.00 Build 0)  -->
<svg version="1.1" id="Layer_1" xmlns="http://www.w3.org/2000/svg" xmlns:xlink="http://www.w3.org/1999/xlink" x="0px" y="0px"
	 viewBox="0 0 10 4" style="enable-background:new 0 0 10 4;" xml:space="preserve">
<style type="text/css">
	.st0{fill:#F27225;}
</style>
<g id="XMLID_298_">
</g>
<g id="XMLID_5580_">
</g>
<g id="XMLID_528_">
	<circle id="XMLID_887_" class="st0" cx="2" cy="2.9" r="0.7"/>
	<circle id="XMLID_886_" class="st0" cx="7.4" cy="2.9" r="0.7"/>
	<path id="XMLID_881_" class="st0" d="M9.4,2.3c0,0,0-0.6,0-0.8S8.1,1.3,8.1,1.3S7.3,0.6,6.9,0.5s-2.4,0-2.6,0s-1.5,0.9-1.6,1
		s-2-0.2-2.1,0.9c0,0-0.2-0.1-0.2,0.3s0,0.6,0.2,0.6h0.7c0-0.1-0.1-0.2-0.1-0.3c0-0.6,0.4-1,0.8-1c0.5,0,0.9,0.4,0.9,0.9
		c0,0.1,0,0.2-0.1,0.3h3.7c0-0.1-0.1-0.2-0.1-0.3C6.5,2.4,6.9,2,7.4,2s0.9,0.4,0.9,0.9c0,0.1,0,0.2-0.1,0.3h1.1c0,0,0.3-0.1,0.3-0.6
		C9.6,2.2,9.4,2.3,9.4,2.3z M5.2,1.6h-2c0,0,0-0.2,0-0.3c0.1-0.1,1.1-0.7,1.2-0.7c0,0,0.4,0,0.8,0V1.6z M6.7,1.6H5.4l0.1-1
		c0.6,0,1.2,0,1.3,0l0,0L6.7,1.6z M7.4,1.6H6.9L7,0.9c0.2,0.2,0.4,0.5,0.4,0.5V1.6z"/>
</g>
<g id="XMLID_713_">
</g>
<g id="XMLID_1958_">
</g>
</svg>
