<?xml version="1.0" encoding="utf-8"?>
<!-- Generator: Adobe Illustrator 21.0.0, SVG Export Plug-In . SVG Version: 6.00 Build 0)  -->
<svg version="1.1" id="Layer_1" xmlns="http://www.w3.org/2000/svg" xmlns:xlink="http://www.w3.org/1999/xlink" x="0px" y="0px"
	 viewBox="0 0 7.4 7.4" style="enable-background:new 0 0 7.4 7.4;" xml:space="preserve">
<style type="text/css">
	.st0{fill:#F27225;}
	.st1{fill:#FFFFFF;}
</style>
<g id="XMLID_298_">
</g>
<g id="XMLID_5580_">
</g>
<g id="XMLID_422_">
	<g id="XMLID_1029_">
		<g id="XMLID_1035_">
			<g id="XMLID_1539_">
				<circle id="XMLID_1574_" class="st0" cx="3.7" cy="3.7" r="3.7"/>
				<g id="XMLID_1540_">
					<circle id="XMLID_1544_" class="st1" cx="3.7" cy="3.7" r="2.9"/>
				</g>
			</g>
		</g>
	</g>
	<path id="XMLID_547_" class="st0" d="M4.4,5.1L3.7,4.5L3.1,5.1c-0.2,0.2-0.5,0.2-0.7,0s-0.2-0.5,0-0.7l0.7-0.7L2.3,3.1
		c-0.2-0.2-0.2-0.6,0-0.8c0.2-0.2,0.5-0.2,0.7,0L3.7,3l0.7-0.7c0.2-0.2,0.5-0.2,0.7,0c0.3,0.2,0.3,0.6,0.1,0.8L4.5,3.7l0.7,0.7
		c0.2,0.2,0.2,0.5,0,0.7C5,5.4,4.6,5.4,4.4,5.1z"/>
</g>
<g id="XMLID_713_">
</g>
<g id="XMLID_1958_">
</g>
</svg>
