<?xml version="1.0" encoding="utf-8"?>
<!-- Generator: Adobe Illustrator 21.0.0, SVG Export Plug-In . SVG Version: 6.00 Build 0)  -->
<svg version="1.1" id="Layer_1" xmlns="http://www.w3.org/2000/svg" xmlns:xlink="http://www.w3.org/1999/xlink" x="0px" y="0px"
	 viewBox="0 0 9.5 9.7" style="enable-background:new 0 0 9.5 9.7;" xml:space="preserve">
<style type="text/css">
	.st0{fill:#666666;}
	.st1{fill:#FFFFFF;}
	.st2{fill:#F27225;}
</style>
<g id="XMLID_298_">
</g>
<g id="XMLID_5580_">
</g>
<g id="XMLID_206_">
	<circle id="XMLID_580_" class="st0" cx="4.7" cy="4.7" r="4.4"/>
	<g id="XMLID_207_">
		<circle id="XMLID_532_" class="st1" cx="4.7" cy="4.7" r="3.4"/>
		<g id="XMLID_291_">
			<path id="XMLID_357_" class="st0" d="M5.7,4.6c0,0,0.1,0.1,0.1,0.2S5.8,5,5.7,5c0,0-0.1,0.1-0.2,0.1H3.9C3.8,5.1,3.7,5,3.7,5
				S3.6,4.9,3.6,4.8s0-0.2,0.1-0.2c0,0,0.1-0.1,0.2-0.1h1.6C5.6,4.5,5.7,4.6,5.7,4.6z M6.2,4.5C6,4.5,5.9,4.6,5.9,4.8
				C5.9,5,6,5.1,6.2,5.1c0.2,0,0.3-0.1,0.3-0.3C6.6,4.6,6.4,4.5,6.2,4.5z M3.1,4.5C3,4.5,2.8,4.6,2.8,4.8C2.8,5,3,5.2,3.1,5.2
				c0.2,0,0.3-0.1,0.3-0.3C3.5,4.6,3.3,4.5,3.1,4.5z M3.3,3.9h2.8c0,0,0.2,0,0.1-0.1C6.1,3.6,5.9,3.2,5.9,3.2s0-0.1-0.2-0.1H4.9H4.5
				H3.7c-0.2,0-0.2,0.1-0.2,0.1S3.3,3.6,3.2,3.8C3.1,3.9,3.3,3.9,3.3,3.9z M2,3.8v0.1C2,4,2,4.1,2,4.1s0.1,0.1,0.2,0.1h0.4V3.7H2.2
				C2.1,3.7,2.1,3.7,2,3.8z M7.3,3.8c0,0-0.1-0.1-0.2-0.1H6.8v0.5h0.4c0.1,0,0.1,0,0.2-0.1c0,0,0.1-0.1,0.1-0.2
				C7.4,3.9,7.4,3.8,7.3,3.8z"/>
		</g>
		<path id="XMLID_208_" class="st2" d="M5.3,5.8L5.3,5.8L5,6.4L4.9,5.9c0,0,0-0.1-0.1-0.1L4.7,5.7c-0.1,0-0.1,0-0.1,0.1
			c0,0,0,0.1-0.1,0.1L4.3,6.4L4.2,5.9c0-0.1,0-0.1-0.1-0.1H4c-0.1,0-0.1,0-0.1,0.1V6c0,0,0,0,0,0.1l0,0l0.3,0.8C4.2,7,4.2,7,4.3,7
			h0.1h0.1l0.1-0.1l0.2-0.5L5,6.9C5,7,5,7,5.1,7C5,7,5,7,5,7h0.1l0.1-0.1L5.6,6l0,0c0,0,0,0,0-0.1V5.8L5.5,5.7
			C5.4,5.7,5.3,5.8,5.3,5.8"/>
	</g>
</g>
<g id="XMLID_713_">
</g>
<g id="XMLID_1958_">
</g>
</svg>
