<?xml version="1.0" encoding="utf-8"?>
<!-- Generator: Adobe Illustrator 21.0.0, SVG Export Plug-In . SVG Version: 6.00 Build 0)  -->
<svg version="1.1" id="Layer_1" xmlns="http://www.w3.org/2000/svg" xmlns:xlink="http://www.w3.org/1999/xlink" x="0px" y="0px"
	 viewBox="0 0 20 17.8" style="enable-background:new 0 0 20 17.8;" xml:space="preserve">
<style type="text/css">
	.st0{fill:#F37124;}
	.st1{clip-path:url(#SVGID_2_);fill:#666666;}
	.st2{fill:#EEBEA3;}
	.st3{fill:#FDD1B0;}
	.st4{fill:#0D0D0D;}
</style>
<g id="XMLID_298_">
</g>
<g id="XMLID_3654_">
	<circle id="XMLID_3673_" class="st0" cx="9.3" cy="8.9" r="8.9"/>
	<g id="XMLID_3665_">
		<g>
			<defs>
				<circle id="SVGID_1_" cx="9.3" cy="8.9" r="8.9"/>
			</defs>
			<clipPath id="SVGID_2_">
				<use xlink:href="#SVGID_1_"  style="overflow:visible;"/>
			</clipPath>
			<ellipse id="XMLID_3667_" class="st1" cx="9.4" cy="19.7" rx="5.8" ry="6.9"/>
		</g>
	</g>
	<g id="XMLID_3656_">
		<g id="XMLID_3657_">
			<path id="XMLID_3664_" class="st2" d="M13.9,8c-0.1-0.3-0.3-0.6-0.6-0.7c-0.1,0.6-0.2,0.9-0.2,0.9c0-0.1,0-0.3-0.1-0.5
				c-0.1-1.2-0.3-2.5-0.9-2.6c-1.1,0.6-2.2,0.2-6,1.1c-0.4,0.8-0.4,2-0.4,2V8.1L5.4,7.2C5.1,7.4,4.9,7.7,4.8,8
				C4.6,8.2,4.4,8.5,4.4,8.8C4.4,9.5,5,10,5.6,10l0,0c0.1,1.2,0.7,2.3,1.7,2.9V13c0,1.1,0.9,2,2,2s2-0.9,2-2v-0.2
				c0.9-0.6,1.6-1.7,1.7-2.8l0,0c0.7,0,1.2-0.5,1.2-1.2C14.2,8.5,14.1,8.2,13.9,8z"/>
			<path id="XMLID_3660_" class="st2" d="M7.3,12.9V13c0,1.1,0.9,2,2,2s2-0.9,2-2v-0.2c-0.6,0.4-1.3,0.6-2.1,0.6
				C8.5,13.4,7.9,13.2,7.3,12.9z M5.6,8.1L5.4,7.2C5.1,7.4,4.9,7.7,4.8,8C4.6,8.2,4.4,8.5,4.4,8.8C4.4,9.5,5,10,5.6,10l0,0
				c0-0.1,0-0.2,0-0.2V8.1z M13.9,8c-0.1-0.3-0.3-0.6-0.6-0.7c-0.1,0.6-0.2,0.9-0.2,0.9c0-0.1,0-0.3-0.1-0.5v2c0,0.1,0,0.2,0,0.3
				l0,0c0.7,0,1.2-0.5,1.2-1.2C14.2,8.5,14.1,8.2,13.9,8z"/>
			<path id="XMLID_3659_" class="st3" d="M12.1,5.1c-1.1,0.6-2.2,0.2-6,1.1c-0.4,0.8-0.4,2-0.4,2V8.1v1.7c0,0.1,0,0.2,0,0.2
				c0.1,1.2,0.7,2.3,1.7,2.9c0.6,0.4,1.2,0.6,1.9,0.6c0.8,0,1.5-0.2,2.1-0.6c0.9-0.6,1.6-1.7,1.7-2.8c0-0.1,0-0.2,0-0.3v-2
				C12.9,6.5,12.7,5.2,12.1,5.1z"/>
			<path id="XMLID_3658_" class="st4" d="M5.6,8.1L5.6,8.1c0,0.1,0-1.1,0.5-1.9c3.9-0.9,4.9-0.4,6-1.1c0.7,0.1,0.8,1.4,0.9,2.6
				c0,0.2,0,0.3,0.1,0.5c0,0,0.1-0.4,0.2-0.9c0.2-1.1,0.4-3-0.1-3.9c-0.8-1.3-2.1-0.7-2.1-0.7c-2.5-1.4-4-0.7-5,0.4
				c-0.9,1-1.2,2.5-0.8,3.8l0.1,0.3L5.6,8.1z"/>
		</g>
	</g>
</g>
<g id="XMLID_5580_">
</g>
<g id="XMLID_713_">
</g>
<g id="XMLID_1958_">
</g>
</svg>
