<?xml version="1.0" encoding="utf-8"?>
<!-- Generator: Adobe Illustrator 21.0.0, SVG Export Plug-In . SVG Version: 6.00 Build 0)  -->
<svg version="1.1" id="Layer_1" xmlns="http://www.w3.org/2000/svg" xmlns:xlink="http://www.w3.org/1999/xlink" x="0px" y="0px"
	 viewBox="0 0 22 18" style="enable-background:new 0 0 22 18;" xml:space="preserve">
<style type="text/css">
	.st0{fill:#666666;}
	.st1{fill:#F37124;}
</style>
<g id="XMLID_298_">
</g>
<g id="XMLID_3231_">
	<path id="XMLID_3269_" class="st0" d="M15,6.6c0.2,0.2,0.3,0.5,0.3,0.9s-0.2,0.8-0.3,1c-0.2,0.2-0.5,0.4-0.9,0.4H7.9
		C7.5,8.8,7.2,8.6,7,8.5C6.9,8.3,6.7,8,6.7,7.6c0-0.5,0.2-0.7,0.3-0.9c0.2-0.2,0.5-0.4,0.9-0.4H14C14.5,6.3,14.8,6.5,15,6.6z
		 M17,6.3c-0.7,0-1.2,0.6-1.2,1.3s0.6,1.3,1.2,1.3c0.7,0,1.2-0.6,1.2-1.3C18.2,6.8,17.7,6.3,17,6.3z M5,6.3c-0.7,0-1.2,0.6-1.2,1.3
		S4.4,8.9,5,8.9c0.7,0,1.2-0.6,1.2-1.3C6.3,6.8,5.7,6.3,5,6.3z M5.6,4.1h10.9c0,0,0.8,0.1,0.5-0.6c-0.4-0.6-1.2-2.3-1.2-2.3
		s-0.2-0.5-0.9-0.5h-3.1h-1.4H7.2c-0.7,0-0.9,0.5-0.9,0.5S5.5,2.9,5.1,3.5S5.6,4.1,5.6,4.1z M0.8,3.5C0.7,3.6,0.5,3.8,0.5,4.1
		s0.1,0.5,0.2,0.6C0.9,4.8,1.1,5,1.4,5h1.4V3.2H1.4C1.1,3.2,0.9,3.4,0.8,3.5z M21.3,3.5c-0.1-0.1-0.3-0.3-0.6-0.3h-1.4V5h1.4
		c0.3,0,0.5-0.1,0.6-0.3c0.1-0.1,0.2-0.3,0.2-0.6S21.4,3.6,21.3,3.5z"/>
	<g id="XMLID_3243_">
		<path id="XMLID_3268_" class="st0" d="M3.3,16.1C3.2,16.1,3.2,16.1,3.3,16.1C3.2,16.1,3.2,16.2,3.3,16.1L3,16.7l0,0l-0.2-0.5
			c0,0,0,0,0-0.1c0,0,0,0-0.1,0c0,0,0,0-0.1,0c0,0,0,0,0,0.1l-0.2,0.5l0,0l-0.2-0.5c0,0,0,0,0-0.1l0,0c0,0,0,0-0.1,0l0,0l0,0l0,0
			l0.2,0.6c0,0,0,0,0,0.1l0,0l0,0c0,0,0,0,0-0.1l0.2-0.5l0,0l0.2,0.5c0,0,0,0,0,0.1l0,0l0,0c0,0,0,0,0-0.1l0.2-0.6
			C3.3,16.2,3.3,16.2,3.3,16.1C3.3,16.2,3.3,16.2,3.3,16.1C3.3,16.2,3.3,16.2,3.3,16.1L3.3,16.1"/>
		<path id="XMLID_3265_" class="st0" d="M5.3,16.1c-0.1,0-0.2,0-0.3,0.1c-0.1,0.1-0.1,0.2-0.1,0.3c0,0.1,0,0.2,0.1,0.3
			c0.1,0.1,0.2,0.1,0.3,0.1c0.1,0,0.2,0,0.3-0.1v0.1l0,0c0,0,0,0.1,0.1,0.1c0,0,0.1,0,0.1-0.1l0,0v-0.3c0-0.1,0-0.2-0.1-0.3
			C5.5,16.2,5.4,16.1,5.3,16.1 M5.5,16.7c-0.1,0.1-0.1,0.1-0.2,0.1s-0.1,0-0.2-0.1C5,16.7,5,16.6,5,16.5s0-0.1,0.1-0.2
			s0.1-0.1,0.2-0.1s0.1,0,0.2,0.1s0.1,0.1,0.1,0.2C5.5,16.6,5.5,16.7,5.5,16.7"/>
		<path id="XMLID_3262_" class="st0" d="M9.3,16.1c-0.1,0-0.2,0-0.3,0.1s-0.1,0.2-0.1,0.3c0,0.1,0,0.2,0.1,0.3
			c0.1,0.1,0.2,0.1,0.3,0.1s0.2,0,0.3-0.1v0.1l0,0c0,0,0,0.1,0.1,0.1c0,0,0.1,0,0.1-0.1v-0.3c0-0.1,0-0.2-0.1-0.3
			C9.5,16.2,9.4,16.1,9.3,16.1 M9.5,16.7c-0.1,0.1-0.1,0.1-0.2,0.1c-0.1,0-0.1,0-0.2-0.1C9,16.7,9,16.6,9,16.5s0-0.1,0.1-0.2
			s0.1-0.1,0.2-0.1c0.1,0,0.1,0,0.2,0.1c0.1,0.1,0.1,0.1,0.1,0.2C9.5,16.6,9.5,16.7,9.5,16.7"/>
		<path id="XMLID_3261_" class="st0" d="M6.2,16.1L6.2,16.1C6.1,16.1,6.1,16.1,6.2,16.1L6.2,16.1L6.2,16.1L6.2,16.1L6.1,16
			c0,0,0,0,0-0.1l0,0l0,0c0,0,0,0,0,0.1v0.7c0,0,0,0,0,0.1l0,0l0,0c0,0,0,0,0-0.1v-0.4v-0.1C6.1,16.2,6.1,16.2,6.2,16.1
			C6.1,16.1,6.1,16.1,6.2,16.1C6.2,16.1,6.2,16.1,6.2,16.1C6.3,16.2,6.3,16.2,6.2,16.1C6.3,16.2,6.3,16.2,6.2,16.1
			C6.3,16.1,6.3,16.1,6.2,16.1"/>
		<path id="XMLID_3258_" class="st0" d="M8.3,16.1c-0.1,0-0.2,0-0.3,0.1c-0.1,0.1-0.1,0.2-0.1,0.3v0.7l0,0l0,0c0,0,0,0.1,0.1,0.1
			c0,0,0.1,0,0.1-0.1l0,0l0,0v-0.4c0.1,0.1,0.2,0.1,0.3,0.1s0.2,0,0.3-0.1s0.1-0.2,0.1-0.3c0-0.1,0-0.2-0.1-0.3
			C8.5,16.2,8.4,16.1,8.3,16.1 M8.5,16.7c-0.1,0.1-0.1,0.1-0.2,0.1c-0.1,0-0.1,0-0.2-0.1c0,0-0.1-0.1-0.1-0.2s0-0.1,0.1-0.2
			s0.1-0.1,0.2-0.1c0.1,0,0.1,0,0.2,0.1c0.1,0.1,0.1,0.1,0.1,0.2S8.5,16.7,8.5,16.7"/>
		<path id="XMLID_3257_" class="st0" d="M10.2,16.1L10.2,16.1c-0.1,0-0.1,0-0.1,0l0,0l0,0l0,0V16c0,0,0,0,0-0.1l0,0l0,0
			c0,0,0,0,0,0.1v0.7c0,0,0,0,0,0.1l0,0l0,0c0,0,0,0,0-0.1v-0.4v-0.1c0,0,0,0,0-0.1C10.1,16.1,10.1,16.1,10.2,16.1c0,0,0,0,0.1,0
			C10.3,16.2,10.3,16.2,10.2,16.1C10.3,16.2,10.3,16.2,10.2,16.1C10.3,16.1,10.3,16.1,10.2,16.1"/>
		<path id="XMLID_3256_" class="st0" d="M11.1,16.8l-0.4-0.3l0.3-0.2l0,0l0,0l0,0l0,0l0,0l0,0l-0.3,0.2V16c0,0,0,0,0-0.1l0,0l0,0
			c0,0,0,0,0,0.1v1c0,0,0,0,0,0.1l0,0l0,0c0,0,0,0,0-0.1v-0.3L11,17l0,0l0,0l0,0C11.1,16.9,11.1,16.9,11.1,16.8L11.1,16.8L11.1,16.8
			"/>
		<path id="XMLID_3255_" class="st0" d="M11.3,15.9L11.3,15.9C11.3,15.9,11.2,15.9,11.3,15.9c-0.1,0.1,0,0.1,0,0.1s0,0,0.1,0
			c0,0,0,0,0.1,0C11.4,16,11.4,16,11.3,15.9C11.4,15.9,11.4,15.9,11.3,15.9C11.4,15.9,11.4,15.9,11.3,15.9"/>
		<path id="XMLID_3254_" class="st0" d="M11.3,16.1L11.3,16.1C11.3,16.2,11.3,16.2,11.3,16.1l-0.1,0.7c0,0,0,0,0,0.1l0,0l0,0
			c0,0,0,0,0-0.1L11.3,16.1C11.4,16.2,11.4,16.2,11.3,16.1C11.4,16.1,11.4,16.1,11.3,16.1"/>
		<path id="XMLID_3253_" class="st0" d="M12.3,16.4c0-0.1,0-0.2-0.1-0.2c-0.1-0.1-0.1-0.1-0.2-0.1c-0.1,0-0.2,0-0.2,0.1
			c-0.1,0.1-0.1,0.1-0.1,0.2v0.5c0,0,0,0.1,0.1,0.1c0,0,0.1,0,0.1-0.1l0,0v-0.5c0-0.1,0-0.1,0.1-0.1l0.1-0.1c0.1,0,0.1,0,0.1,0.1
			L12.3,16.4l0,0.5l0,0c0,0,0,0.1,0.1,0.1c0,0,0.1,0,0.1-0.1l0,0v-0.5H12.3z"/>
		<path id="XMLID_3250_" class="st0" d="M13.2,16.2c-0.1-0.1-0.2-0.1-0.3-0.1s-0.2,0-0.3,0.1s-0.1,0.2-0.1,0.3c0,0.1,0,0.2,0.1,0.3
			c0.1,0.1,0.2,0.1,0.3,0.1s0.2,0,0.3-0.1v0.1c0,0.1,0,0.1-0.1,0.2c0,0.1-0.1,0.1-0.2,0.1c-0.1,0-0.2,0-0.2-0.1l0,0c0,0,0,0-0.1,0
			c0,0-0.1,0-0.1,0.1l0,0l0.1,0.1c0.1,0,0.1,0.1,0.2,0.1c0.1,0,0.2,0,0.3-0.1s0.1-0.2,0.1-0.3v-0.3C13.3,16.4,13.3,16.3,13.2,16.2
			 M13.1,16.7c-0.1,0.1-0.1,0.1-0.2,0.1c-0.1,0-0.1,0-0.2-0.1c-0.1-0.1-0.1-0.1-0.1-0.2s0-0.1,0.1-0.2s0.1-0.1,0.2-0.1
			c0.1,0,0.1,0,0.2,0.1c0.1,0.1,0.1,0.1,0.1,0.2C13.2,16.6,13.2,16.7,13.1,16.7"/>
		<path id="XMLID_3247_" class="st0" d="M7.2,16.5c0-0.1-0.1-0.2-0.1-0.2c-0.1-0.1-0.2-0.1-0.3-0.1c-0.1,0-0.2,0-0.3,0.1
			c-0.1,0.1-0.1,0.2-0.1,0.3c0,0.1,0,0.2,0.1,0.3C6.6,17,6.7,17,6.8,17C6.9,17,7,17,7,16.9l0,0c0,0,0-0.1,0.1-0.1l0,0l0,0
			c0,0,0-0.1-0.1-0.1c0,0,0,0-0.1,0l0,0c0,0.1-0.1,0.1-0.2,0.1s-0.1,0-0.2-0.1c-0.1,0-0.1-0.1-0.1-0.2L7.2,16.5L7.2,16.5
			C7.2,16.6,7.2,16.5,7.2,16.5L7.2,16.5L7.2,16.5 M6.6,16.5c0-0.1,0-0.1,0.1-0.2c0,0,0.1-0.1,0.2-0.1s0.1,0,0.2,0.1l0.1,0.1H6.6
			V16.5z"/>
		<path id="XMLID_3244_" class="st0" d="M4.2,16.5c0-0.1-0.1-0.2-0.1-0.2c-0.1-0.1-0.2-0.1-0.3-0.1s-0.2,0-0.3,0.1s-0.1,0.2-0.1,0.3
			c0,0.1,0,0.2,0.1,0.3C3.6,17,3.7,17,3.8,17S4,17,4,16.9l0,0c0,0,0-0.1,0.1-0.1l0,0l0,0c0,0,0-0.1-0.1-0.1c0,0,0,0-0.1,0l0,0
			c0,0.1-0.1,0.1-0.2,0.1c-0.1,0-0.1,0-0.2-0.1c-0.1,0-0.1-0.1-0.1-0.2L4.2,16.5L4.2,16.5C4.2,16.6,4.2,16.5,4.2,16.5L4.2,16.5
			L4.2,16.5 M3.6,16.5c0-0.1,0-0.1,0.1-0.2c0,0,0.1-0.1,0.2-0.1c0.1,0,0.1,0,0.2,0.1l0.1,0.1H3.6V16.5z"/>
	</g>
	<g id="XMLID_3232_">
		<path id="XMLID_3242_" class="st1" d="M6.1,10.9C6,11,5.9,11.1,5.8,11.3l-0.6,1.8l-0.6-1.7c-0.1-0.2-0.1-0.3-0.2-0.4
			c-0.1-0.1-0.2-0.2-0.6-0.2c-0.3,0-0.5,0.1-0.6,0.3c-0.1,0.1-0.1,0.2-0.2,0.4l-0.6,1.7l-0.6-1.8c-0.1-0.2-0.2-0.4-0.3-0.5
			s-0.3-0.1-0.4-0.1c-0.3,0-0.4,0.1-0.5,0.2c-0.1,0.1-0.2,0.3-0.2,0.4c0,0.1,0,0.1,0,0.2c0,0,0,0.1,0.1,0.2L1.7,15
			c0.1,0.2,0.2,0.3,0.3,0.4c0.1,0.1,0.3,0.1,0.5,0.1s0.3,0,0.5-0.1c0.1-0.1,0.2-0.2,0.3-0.4l0.6-1.8L4.5,15c0.1,0.2,0.2,0.3,0.3,0.4
			c0.1,0.1,0.3,0.1,0.5,0.1s0.3,0,0.5-0.1C5.9,15.3,6,15.2,6.1,15l1.2-3.2c0-0.1,0-0.1,0-0.2c0-0.1,0-0.1,0-0.2
			c0-0.1-0.1-0.3-0.2-0.4c-0.1-0.1-0.2-0.2-0.5-0.2C6.4,10.8,6.3,10.8,6.1,10.9"/>
		<path id="XMLID_3239_" class="st1" d="M8.6,12.6c0-0.1,0.1-0.2,0.2-0.3c0.1-0.1,0.1-0.1,0.3-0.2C9.1,12,9.3,12,9.4,12l0,0
			c0.1,0,0.3,0,0.4,0.1c0.1,0.1,0.2,0.1,0.2,0.2c0.1,0.1,0.1,0.2,0.1,0.3H8.6L8.6,12.6 M8.5,11c-0.3,0.1-0.5,0.3-0.7,0.5
			S7.5,12,7.4,12.3s-0.2,0.6-0.2,0.9c0,0.3,0,0.6,0.1,0.9c0.1,0.3,0.2,0.5,0.4,0.8c0.2,0.2,0.4,0.4,0.7,0.5s0.7,0.2,1,0.2
			c0.4,0,0.9-0.1,1.2-0.3s0.5-0.4,0.6-0.6c0.1-0.2,0.1-0.4,0-0.5c-0.1-0.2-0.3-0.3-0.5-0.3c-0.1,0-0.3,0-0.4,0.1
			c-0.4,0.3-0.9,0.4-1.4,0.2c-0.1,0-0.2-0.1-0.3-0.2c-0.1-0.1-0.1-0.2-0.2-0.3l0,0h2.3c0.3,0,0.4-0.1,0.6-0.2
			c0.1-0.1,0.2-0.3,0.2-0.5c0-0.3,0-0.6-0.1-0.8c-0.1-0.3-0.2-0.5-0.4-0.7s-0.4-0.4-0.7-0.5s-0.6-0.2-0.9-0.2
			C9.1,10.8,8.8,10.8,8.5,11"/>
		<path id="XMLID_3238_" class="st1" d="M13.7,10.9c-0.1,0.1-0.2,0.1-0.3,0.2L13.3,11c-0.1-0.1-0.2-0.2-0.5-0.2
			c-0.2,0-0.4,0.1-0.5,0.2c-0.1,0.1-0.2,0.2-0.2,0.5v3.4c0,0.3,0.1,0.4,0.2,0.5c0.1,0.1,0.2,0.2,0.5,0.2c0.2,0,0.4-0.1,0.5-0.2
			c0.1-0.1,0.2-0.2,0.2-0.5V13c0-0.1,0-0.3,0.1-0.4c0-0.1,0.1-0.2,0.2-0.2c0.1-0.1,0.1-0.1,0.2-0.1c0.1,0,0.2-0.1,0.3-0.1
			c0.7-0.1,0.7-0.5,0.7-0.7s-0.1-0.4-0.2-0.5c-0.1-0.1-0.3-0.2-0.5-0.2C14,10.8,13.9,10.8,13.7,10.9"/>
		<path id="XMLID_3235_" class="st1" d="M17,14.2c-0.1-0.1-0.2-0.1-0.2-0.2c-0.1-0.1-0.1-0.2-0.2-0.4c0-0.1-0.1-0.3-0.1-0.4
			c0-0.1,0-0.3,0.1-0.4c0-0.1,0.1-0.3,0.2-0.4c0.1-0.1,0.1-0.2,0.2-0.2c0-0.2,0.2-0.2,0.3-0.2c0.1,0,0.3,0,0.4,0.1s0.2,0.1,0.3,0.2
			c0.1,0.1,0.1,0.2,0.2,0.4c0,0.1,0.1,0.3,0.1,0.4c0,0.1,0,0.3-0.1,0.4c0,0.1-0.1,0.3-0.2,0.4c-0.1,0.1-0.1,0.2-0.3,0.2
			c-0.1,0.1-0.2,0.1-0.4,0.1C17.2,14.3,17,14.2,17,14.2 M16.3,11L16.3,11c-0.1-0.1-0.3-0.2-0.5-0.2s-0.4,0.1-0.5,0.2
			c-0.1,0.1-0.2,0.2-0.2,0.5v4.9c0,0.3,0.1,0.4,0.2,0.5c0.1,0.1,0.2,0.2,0.5,0.2c0.2,0,0.4-0.1,0.5-0.2s0.2-0.2,0.2-0.5v-1.1
			c0.1,0.1,0.2,0.1,0.4,0.1c0.2,0,0.3,0.1,0.5,0.1c0.3,0,0.7-0.1,0.9-0.2c0.3-0.1,0.5-0.3,0.7-0.5s0.3-0.5,0.4-0.8s0.1-0.6,0.1-0.9
			c0-0.3,0-0.6-0.1-0.9c-0.1-0.3-0.2-0.5-0.4-0.8c-0.2-0.2-0.4-0.4-0.7-0.5c-0.3-0.1-0.6-0.2-0.9-0.2C16.9,10.8,16.6,10.8,16.3,11"
			/>
		<path id="XMLID_3234_" class="st1" d="M20.2,11c-0.1,0-0.2,0.2-0.2,0.5v3.4c0,0.3,0.1,0.4,0.2,0.5s0.2,0.2,0.5,0.2
			c0.2,0,0.4-0.1,0.5-0.2c0.1-0.1,0.2-0.2,0.2-0.5v-3.4c0-0.3-0.1-0.4-0.2-0.5s-0.2-0.2-0.5-0.2C20.5,10.8,20.3,10.9,20.2,11"/>
		<path id="XMLID_3233_" class="st1" d="M20,9.5c0,0.4,0.3,0.7,0.7,0.7c0.4,0,0.7-0.3,0.7-0.7s-0.3-0.7-0.7-0.7S20,9.1,20,9.5"/>
	</g>
</g>
<g id="XMLID_5580_">
</g>
<g id="XMLID_713_">
</g>
<g id="XMLID_1958_">
</g>
</svg>
