<?xml version="1.0" encoding="utf-8"?>
<!-- Generator: Adobe Illustrator 21.0.0, SVG Export Plug-In . SVG Version: 6.00 Build 0)  -->
<svg version="1.1" id="Layer_1" xmlns="http://www.w3.org/2000/svg" xmlns:xlink="http://www.w3.org/1999/xlink" x="0px" y="0px"
	 viewBox="0 0 8 8" style="enable-background:new 0 0 8 8;" xml:space="preserve">
<style type="text/css">
	.st0{fill:#F27225;}
	.st1{fill:#FFFFFF;}
</style>
<g id="XMLID_298_">
</g>
<g id="XMLID_5580_">
</g>
<g id="XMLID_713_">
</g>
<g id="XMLID_1958_">
</g>
<g id="XMLID_2075_">
	<g id="XMLID_2081_">
		<g id="XMLID_2083_">
			<circle id="XMLID_2086_" class="st0" cx="4" cy="4" r="3.7"/>
			<g id="XMLID_2084_">
				<circle id="XMLID_2085_" class="st1" cx="4" cy="4" r="2.9"/>
			</g>
		</g>
	</g>
	<g id="XMLID_2076_">
		<g id="XMLID_2077_">
			<path id="XMLID_2078_" class="st0" d="M5.6,5.3l-1-1c0.1-0.2,0.2-0.5,0.2-0.7c0-0.7-0.6-1.3-1.3-1.3S2.2,2.9,2.2,3.6
				s0.6,1.3,1.3,1.3c0.3,0,0.5-0.1,0.7-0.2l1,1c0.1,0.1,0.2,0.1,0.3,0C5.7,5.5,5.7,5.4,5.6,5.3z M4.3,4C4.2,4.1,4.1,4.2,4,4.3
				c-0.1,0-0.3,0.1-0.4,0.1C3.1,4.4,2.7,4,2.7,3.5s0.4-0.8,0.8-0.8c0.5,0,0.8,0.4,0.8,0.8C4.4,3.7,4.4,3.9,4.3,4z"/>
		</g>
	</g>
</g>
</svg>
