<?xml version="1.0" encoding="utf-8"?>
<!-- Generator: Adobe Illustrator 21.0.0, SVG Export Plug-In . SVG Version: 6.00 Build 0)  -->
<svg version="1.1" id="Layer_1" xmlns="http://www.w3.org/2000/svg" xmlns:xlink="http://www.w3.org/1999/xlink" x="0px" y="0px"
	 viewBox="0 0 6 5" style="enable-background:new 0 0 6 5;" xml:space="preserve">
<style type="text/css">
	.st0{fill:#F37124;}
</style>
<g id="XMLID_298_">
</g>
<g id="XMLID_5580_">
</g>
<g id="XMLID_281_">
	<g id="XMLID_289_">
		<path id="XMLID_294_" class="st0" d="M5.4,1.2H1.9C1.7,1.2,1.4,1,1.4,0.7l0,0c0-0.3,0.2-0.5,0.5-0.5h3.5c0.3,0,0.5,0.2,0.5,0.5
			v0.1C5.9,1,5.7,1.2,5.4,1.2z"/>
		<circle id="XMLID_293_" class="st0" cx="0.6" cy="0.7" r="0.5"/>
	</g>
	<g id="XMLID_285_">
		<path id="XMLID_287_" class="st0" d="M5.4,3H1.9C1.7,3,1.4,2.8,1.4,2.5l0,0C1.4,2.2,1.7,2,1.9,2h3.5c0.3,0,0.5,0.2,0.5,0.5v0.1
			C5.9,2.8,5.7,3,5.4,3z"/>
		<circle id="XMLID_286_" class="st0" cx="0.6" cy="2.5" r="0.5"/>
	</g>
	<g id="XMLID_282_">
		<path id="XMLID_284_" class="st0" d="M5.4,4.8H1.9c-0.3,0-0.5-0.2-0.5-0.5l0,0c0-0.3,0.2-0.5,0.5-0.5h3.5c0.3,0,0.5,0.2,0.5,0.5
			v0.1C5.9,4.6,5.7,4.8,5.4,4.8z"/>
		<circle id="XMLID_283_" class="st0" cx="0.6" cy="4.3" r="0.5"/>
	</g>
</g>
<g id="XMLID_713_">
</g>
<g id="XMLID_1958_">
</g>
</svg>
