<?xml version="1.0" encoding="utf-8"?>
<!-- Generator: Adobe Illustrator 21.0.0, SVG Export Plug-In . SVG Version: 6.00 Build 0)  -->
<svg version="1.1" id="Layer_1" xmlns="http://www.w3.org/2000/svg" xmlns:xlink="http://www.w3.org/1999/xlink" x="0px" y="0px"
	 viewBox="0 0 8.6 8.2" style="enable-background:new 0 0 8.6 8.2;" xml:space="preserve">
<style type="text/css">
	.st0{fill:#F27225;}
	.st1{fill:#FFFFFF;}
</style>
<g id="XMLID_298_">
</g>
<g id="XMLID_5580_">
</g>
<g id="XMLID_420_">
	<g id="XMLID_492_">
		<g id="XMLID_579_">
			<g id="XMLID_670_">
				<circle id="XMLID_1002_" class="st0" cx="4.3" cy="4.2" r="3.7"/>
				<g id="XMLID_933_">
					<circle id="XMLID_1001_" class="st1" cx="4.3" cy="4.2" r="2.9"/>
				</g>
			</g>
			<g id="XMLID_640_">
				
					<text id="XMLID_6323_" transform="matrix(1 0 0 1 -18.7678 -23.9458)" style="fill:#666666; font-family:'ArialMT'; font-size:2.7773px;">MODIFICAR</text>
			</g>
		</g>
	</g>
	<g id="XMLID_487_">
		<path id="XMLID_1034_" class="st0" d="M5.6,2.4c-0.1-0.1-0.2-0.1-0.3,0l-2,2C3.2,4.5,3.1,4.6,3.1,4.8L2.7,5.9C2.6,6,2.7,6,2.8,6
			l1.1-0.4c0.1,0,0.3-0.1,0.3-0.2l2-2c0.1-0.1,0.1-0.2,0-0.3L5.6,2.4z"/>
		<polygon id="XMLID_1028_" class="st1" points="3.3,5.6 3.9,5.4 3.3,4.8 3.1,5.3 		"/>
		
			<rect id="XMLID_545_" x="5.2" y="2.8" transform="matrix(0.707 -0.7072 0.7072 0.707 -0.7566 4.7251)" class="st0" width="0.2" height="1"/>
	</g>
</g>
<g id="XMLID_713_">
</g>
<g id="XMLID_1958_">
</g>
</svg>
