<?xml version="1.0" encoding="utf-8"?>
<!-- Generator: Adobe Illustrator 21.0.0, SVG Export Plug-In . SVG Version: 6.00 Build 0)  -->
<svg version="1.1" id="Layer_1" xmlns="http://www.w3.org/2000/svg" xmlns:xlink="http://www.w3.org/1999/xlink" x="0px" y="0px"
	 viewBox="0 0 7.6 7.4" style="enable-background:new 0 0 7.6 7.4;" xml:space="preserve">
<style type="text/css">
	.st0{fill:#F27225;}
	.st1{fill:#FFFFFF;}
</style>
<g id="XMLID_298_">
</g>
<g id="XMLID_5580_">
</g>
<g id="XMLID_350_">
	<g id="XMLID_5355_">
		<g id="XMLID_5357_">
			<circle id="XMLID_5360_" class="st0" cx="3.8" cy="3.7" r="3.7"/>
			<g id="XMLID_5358_">
				<circle id="XMLID_5359_" class="st1" cx="3.8" cy="3.7" r="2.9"/>
			</g>
		</g>
	</g>
	<g id="XMLID_5350_">
		<path id="XMLID_5351_" class="st0" d="M3.6,4.2v1.3H2.8V1.7h1.3C4.5,1.7,4.8,1.8,5,2c0.2,0.3,0.3,0.6,0.3,1S5.2,3.7,5,3.9
			C4.7,4.1,4.4,4.2,4.1,4.2H3.6z M3.6,3.6h0.5c0.1,0,0.3,0,0.3-0.1C4.5,3.3,4.5,3.2,4.5,3s0-0.3-0.1-0.4S4.2,2.4,4.1,2.4H3.6V3.6z"
			/>
	</g>
</g>
<g id="XMLID_713_">
</g>
<g id="XMLID_1958_">
</g>
</svg>
