<?xml version="1.0" encoding="utf-8"?>
<!-- Generator: Adobe Illustrator 21.0.0, SVG Export Plug-In . SVG Version: 6.00 Build 0)  -->
<svg version="1.1" id="Layer_1" xmlns="http://www.w3.org/2000/svg" xmlns:xlink="http://www.w3.org/1999/xlink" x="0px" y="0px"
	 viewBox="0 0 7.4 7.4" style="enable-background:new 0 0 7.4 7.4;" xml:space="preserve">
<style type="text/css">
	.st0{fill:#F27225;}
	.st1{fill:#FFFFFF;}
</style>
<g id="XMLID_298_">
</g>
<g id="XMLID_544_">
	<circle id="XMLID_854_" class="st0" cx="3.7" cy="3.7" r="3.7"/>
	<g id="XMLID_589_">
		<circle id="XMLID_610_" class="st1" cx="3.7" cy="3.7" r="2.9"/>
	</g>
</g>
<g id="XMLID_536_">
	<path id="XMLID_539_" class="st0" d="M3.7,4.1H3.3v1.2H2.6V2.1h1.1c0.4,0,0.6,0.1,0.8,0.3c0.2,0.2,0.3,0.4,0.3,0.7
		c0,0.4-0.2,0.7-0.5,0.9l0.6,1.3l0,0H4.1L3.7,4.1z M3.3,3.6h0.4c0.1,0,0.2,0,0.3-0.1c0.1-0.1,0.1-0.2,0.1-0.3c0-0.3-0.1-0.5-0.4-0.5
		H3.3V3.6z"/>
</g>
<g id="XMLID_5580_">
</g>
<g id="XMLID_713_">
</g>
<g id="XMLID_1958_">
</g>
</svg>
