<?xml version="1.0" encoding="utf-8"?>
<!-- Generator: Adobe Illustrator 21.0.0, SVG Export Plug-In . SVG Version: 6.00 Build 0)  -->
<svg version="1.1" id="Layer_1" xmlns="http://www.w3.org/2000/svg" xmlns:xlink="http://www.w3.org/1999/xlink" x="0px" y="0px"
	 viewBox="0 0 8 5" style="enable-background:new 0 0 8 5;" xml:space="preserve">
<style type="text/css">
	.st0{fill:#F27225;}
	.st1{fill:#F37124;}
	.st2{fill:#FFFFFF;}
</style>
<g id="XMLID_298_">
</g>
<g id="XMLID_5580_">
</g>
<g id="XMLID_888_">
	<g id="XMLID_889_">
		<g id="XMLID_890_">
			<g id="XMLID_5336_">
				<g id="XMLID_5337_">
					<g id="XMLID_5341_">
						<path id="XMLID_5342_" class="st0" d="M0.6,4.2V0.8c0-0.1,0.1-0.3,0.3-0.3h6.2c0.1,0,0.3,0.1,0.3,0.3v3.4
							c0,0.1-0.1,0.3-0.3,0.3H0.9C0.8,4.5,0.6,4.3,0.6,4.2z"/>
					</g>
					<g id="XMLID_5338_">
						<path id="XMLID_5339_" class="st1" d="M0.9,0.6c-0.1,0-0.2,0.1-0.2,0.2v3.4c0,0.1,0,0.1,0.1,0.1l0.1,0.1h6.2l0,0
							c0.1,0,0.1,0,0.1-0.1l0.1-0.1V0.8c0-0.1,0-0.1-0.1-0.1L7.1,0.6L0.9,0.6L0.9,0.6z"/>
					</g>
				</g>
			</g>
			<g id="XMLID_930_">
				<g id="XMLID_931_">
					<path id="XMLID_932_" class="st2" d="M7.2,1.9H0.8V1.2h6.4V1.9z"/>
				</g>
			</g>
			<g id="XMLID_928_">
				<rect id="XMLID_929_" x="1.1" y="3.3" class="st2" width="3" height="0.5"/>
			</g>
			<g id="XMLID_891_">
				<path id="XMLID_926_" class="st2" d="M1.1,2.5L1.1,2.5C1.2,2.6,1.2,2.6,1.1,2.5L1.1,2.5C1.2,2.6,1.2,2.6,1.1,2.5h0.1h0.1
					L1.2,2.7l0.1,0.1H1.2V2.7l0,0l0,0l0,0v0.1H1.1l0.1-0.1L1.1,2.5L1.1,2.5z"/>
				<path id="XMLID_924_" class="st2" d="M1.4,2.5L1.4,2.5C1.4,2.6,1.4,2.6,1.4,2.5L1.4,2.5C1.5,2.6,1.5,2.6,1.4,2.5h0.1h0.1
					L1.5,2.7l0.1,0.1H1.5V2.7l0,0l0,0l0,0v0.1H1.4l0.1-0.1L1.4,2.5L1.4,2.5z"/>
				<path id="XMLID_922_" class="st2" d="M1.6,2.5L1.6,2.5C1.7,2.6,1.7,2.6,1.6,2.5L1.6,2.5C1.7,2.6,1.7,2.6,1.6,2.5h0.1h0.1
					L1.7,2.7l0.1,0.1H1.7V2.7l0,0l0,0l0,0v0.1H1.6l0.1-0.1L1.6,2.5L1.6,2.5z"/>
				<path id="XMLID_920_" class="st2" d="M1.9,2.5L1.9,2.5C1.9,2.6,1.9,2.6,1.9,2.5L1.9,2.5C1.9,2.6,2,2.6,1.9,2.5H2h0.1L2,2.7
					l0.1,0.1H2V2.7l0,0l0,0l0,0v0.1H1.9L2,2.7L1.9,2.5L1.9,2.5z"/>
				<path id="XMLID_918_" class="st2" d="M2.2,2.5L2.2,2.5C2.3,2.6,2.3,2.6,2.2,2.5L2.2,2.5C2.3,2.6,2.3,2.6,2.2,2.5L2.2,2.5h0.2
					L2.3,2.7l0.1,0.1H2.3V2.7l0,0l0,0l0,0v0.1H2.2l0.1-0.1L2.2,2.5L2.2,2.5z"/>
				<path id="XMLID_916_" class="st2" d="M2.5,2.5L2.5,2.5C2.5,2.6,2.5,2.6,2.5,2.5L2.5,2.5C2.5,2.6,2.6,2.6,2.5,2.5L2.5,2.5h0.2
					L2.6,2.7l0.1,0.1H2.6V2.7l0,0l0,0l0,0v0.1H2.5l0.1-0.1L2.5,2.5L2.5,2.5z"/>
				<path id="XMLID_914_" class="st2" d="M2.7,2.5L2.7,2.5C2.8,2.6,2.8,2.6,2.7,2.5L2.7,2.5C2.8,2.6,2.8,2.6,2.7,2.5L2.7,2.5h0.2
					L2.8,2.7l0.1,0.1H2.8V2.7l0,0l0,0l0,0v0.1H2.7l0.1-0.1L2.7,2.5L2.7,2.5z"/>
				<path id="XMLID_912_" class="st2" d="M3,2.5L3,2.5C3,2.6,3,2.6,3,2.5L3,2.5C3,2.6,3,2.6,3,2.5L3,2.5h0.2L3.1,2.7l0.1,0.1H3.1
					V2.7l0,0l0,0l0,0v0.1H3V2.7V2.5L3,2.5z"/>
				<path id="XMLID_910_" class="st2" d="M3.3,2.5L3.3,2.5C3.4,2.6,3.4,2.6,3.3,2.5L3.3,2.5C3.4,2.6,3.4,2.6,3.3,2.5L3.3,2.5h0.2
					L3.4,2.7l0.1,0.1H3.4V2.7l0,0l0,0l0,0v0.1H3.3l0.1-0.1L3.3,2.5L3.3,2.5z"/>
				<path id="XMLID_908_" class="st2" d="M3.6,2.5L3.6,2.5C3.6,2.6,3.6,2.6,3.6,2.5L3.6,2.5C3.6,2.6,3.6,2.6,3.6,2.5L3.6,2.5h0.2
					L3.7,2.7l0.1,0.1H3.7V2.7l0,0l0,0l0,0v0.1H3.6l0.1-0.1L3.6,2.5L3.6,2.5z"/>
				<path id="XMLID_906_" class="st2" d="M3.8,2.5L3.8,2.5C3.9,2.6,3.9,2.6,3.8,2.5L3.8,2.5C3.9,2.6,3.9,2.6,3.8,2.5L3.8,2.5H4
					L3.9,2.7L4,2.8H3.9V2.7l0,0l0,0l0,0v0.1H3.8l0.1-0.1L3.8,2.5L3.8,2.5z"/>
				<path id="XMLID_904_" class="st2" d="M4.1,2.5L4.1,2.5C4.1,2.6,4.1,2.6,4.1,2.5L4.1,2.5C4.1,2.6,4.1,2.6,4.1,2.5L4.1,2.5h0.2
					L4.1,2.7l0.1,0.1H4.1V2.7l0,0l0,0l0,0v0.1H4l0.1-0.1V2.5L4.1,2.5z"/>
				<path id="XMLID_902_" class="st2" d="M4.4,2.5L4.4,2.5C4.5,2.6,4.5,2.6,4.4,2.5L4.4,2.5C4.5,2.6,4.5,2.6,4.4,2.5L4.4,2.5h0.2
					L4.5,2.7l0.1,0.1H4.5V2.7l0,0l0,0l0,0v0.1H4.4l0.1-0.1L4.4,2.5L4.4,2.5z"/>
				<path id="XMLID_900_" class="st2" d="M4.7,2.5L4.7,2.5C4.7,2.6,4.7,2.6,4.7,2.5L4.7,2.5C4.7,2.6,4.7,2.6,4.7,2.5L4.7,2.5h0.2
					L4.7,2.7l0.1,0.1H4.7V2.7l0,0l0,0l0,0v0.1H4.6l0.1-0.1V2.5L4.7,2.5z"/>
				<path id="XMLID_894_" class="st2" d="M4.9,2.5L4.9,2.5C4.9,2.6,4.9,2.6,4.9,2.5L4.9,2.5C5,2.6,5,2.6,4.9,2.5L4.9,2.5h0.2L5,2.7
					l0.1,0.1H5V2.7l0,0l0,0l0,0v0.1H4.9L5,2.7L4.9,2.5L4.9,2.5z"/>
				<path id="XMLID_892_" class="st2" d="M5.1,2.5L5.1,2.5C5.2,2.6,5.2,2.6,5.1,2.5L5.1,2.5C5.2,2.6,5.2,2.6,5.1,2.5L5.1,2.5h0.2
					L5.2,2.7l0.1,0.1H5.2V2.7l0,0l0,0l0,0v0.1H5.1l0.1-0.1L5.1,2.5L5.1,2.5z"/>
			</g>
		</g>
	</g>
</g>
<g id="XMLID_713_">
</g>
<g id="XMLID_1958_">
</g>
</svg>
