<?xml version="1.0" encoding="utf-8"?>
<!-- Generator: Adobe Illustrator 21.0.0, SVG Export Plug-In . SVG Version: 6.00 Build 0)  -->
<svg version="1.1" id="Capa_1" xmlns="http://www.w3.org/2000/svg" xmlns:xlink="http://www.w3.org/1999/xlink" x="0px" y="0px"
	 viewBox="0 0 9.4 8.4" style="enable-background:new 0 0 9.4 8.4;" xml:space="preserve">
<style type="text/css">
	.st0{fill:#EE7129;}
	.st1{fill:#FFFFFF;}
	.st2{fill:none;}
</style>
<g id="XMLID_4626_">
	<g id="XMLID_4627_">
		<polygon id="XMLID_4653_" class="st0" points="0.1,4.7 0.3,4.4 6.7,0.1 7.4,0.2 9.3,3.2 9.2,3.8 2.7,8.2 2,8 0.2,5.1 		"/>
		<g id="XMLID_4628_">
			<path id="XMLID_4648_" class="st1" d="M6.7,0.1L0.2,4.4C0,4.6-0.1,4.9,0.1,5.1L2,8c0.2,0.2,0.5,0.3,0.7,0.2l6.5-4.3
				c0.2-0.2,0.3-0.5,0.1-0.7l-1.9-3C7.2,0,6.9,0,6.7,0.1z M5.9,0.9l2.3,3.4L3.5,7.4L1.2,4L5.9,0.9z M2.2,7.9L0.2,5
				c-0.1-0.1,0-0.3,0.1-0.4l0.8-0.5l2.3,3.4L2.6,8C2.4,8.1,2.3,8.1,2.2,7.9z M9.2,3.3c0.1,0.1,0.1,0.3-0.1,0.4L8.3,4.2L6,0.8
				l0.8-0.5c0.1-0.1,0.3-0.1,0.4,0.1L9.2,3.3z"/>
			<g id="XMLID_4635_">
				<path id="XMLID_4646_" class="st1" d="M3.3,5.8L3.3,5.8c0-0.1,0-0.1,0-0.2V5.5L2.9,4.9L2.8,5c0,0-0.1,0,0,0.1c0,0,0,0,0,0.1l0,0
					H2.7L2.6,5l0.6-0.4l0.1,0.2H3.2l0,0c0,0,0-0.1-0.1-0.1c0,0,0,0-0.1,0v0.1l0.5,0.6v0.1h0.1v0.1L3.3,5.8z"/>
				<path id="XMLID_4644_" class="st1" d="M3.9,5.4L3.9,5.4c0-0.1,0-0.1,0-0.2V5.1L3.5,4.7L3.4,4.6H3.3V4.5l0.4-0.2v0.1
					c-0.1,0-0.1,0.1,0,0.1v0.1l0.4,0.5l0.1,0.1h0.1v0.1L3.9,5.4z"/>
				<path id="XMLID_4642_" class="st1" d="M4.4,4.1L4.4,4.1C4.3,4,4.2,4,4.1,4C3.9,4.1,4,4.3,4.1,4.6c0.3,0.2,0.4,0.3,0.6,0.2
					c0.1,0,0.1-0.1,0.2-0.2v0.1c0,0.1-0.1,0.2-0.2,0.2C4.6,5,4.5,5,4.3,5C4.2,4.9,4.1,4.9,4,4.7C3.9,4.6,3.9,4.4,3.9,4.3
					S4,4.1,4.1,4c0.1-0.1,0.2-0.1,0.3-0.1L4.4,4.1L4.4,4.1z"/>
				<path id="XMLID_4640_" class="st1" d="M5,4.7L5,4.7c0-0.1,0-0.1,0-0.2V4.4L4.6,3.9V3.8H4.5V3.7l0.3-0.2v0.1H4.7l0,0v0.1l0.1,0.2
					l0.1-0.4V3.4V3.3l0,0l0,0V3.2l0.2-0.1v0.1l0,0c0,0,0,0.1-0.1,0.1v0.1v0.5l0.5,0.2h0.1h0.1v0.1L5.5,4.4V4.3l0,0l0,0H5.4L5,4.1
					l0,0l0.2,0.2l0.1,0.1h0.1v0.1L5,4.7z"/>
				<path id="XMLID_4638_" class="st1" d="M5.8,4.1L5.8,4.1c0-0.1,0-0.1,0-0.2V3.8L5.4,3.4V3.3H5.3V3.2l0.6-0.4L6,3H5.9l0,0l0,0H5.8
					L5.5,3.1l0.2,0.3l0.1-0.1l0,0c0,0,0,0,0-0.1l0,0h0.1L6,3.4H5.9l0,0c0,0,0,0-0.1,0l0,0v0.1L6,3.8l0.1,0.1h0.1l0,0h0.1l0,0
					c0,0,0,0,0-0.1l0,0h0.1L6.5,4L5.8,4.1z"/>
				<path id="XMLID_4636_" class="st1" d="M6.6,3.7L6.6,3.7c0-0.1,0-0.1,0-0.2V3.4L6.1,2.8H6c0,0-0.1,0,0,0.1c0,0,0,0,0,0.1l0,0H5.9
					L5.8,2.8l0.7-0.4l0.1,0.2L6.5,2.7l0,0c0,0,0-0.1-0.1-0.1c0,0,0,0-0.1,0l0,0l0.4,0.6l0.1,0.1h0.1v0.1L6.6,3.7z"/>
			</g>
			<g id="XMLID_4632_">
				<line id="XMLID_4634_" class="st2" x1="3" y1="6.3" x2="7.4" y2="3.4"/>
				
					<rect id="XMLID_4633_" x="2.6" y="4.8" transform="matrix(0.834 -0.5518 0.5518 0.834 -1.8199 3.6961)" class="st1" width="5.3" height="0.1"/>
			</g>
			<g id="XMLID_4629_">
				<line id="XMLID_4631_" class="st2" x1="2.2" y1="5" x2="6.6" y2="2"/>
				
					<rect id="XMLID_4630_" x="1.8" y="3.5" transform="matrix(0.834 -0.5518 0.5518 0.834 -1.2368 3.0356)" class="st1" width="5.3" height="0.1"/>
			</g>
		</g>
	</g>
</g>
</svg>
